<?xml version="1.0" encoding="utf-8"?>
<!-- Generator: Adobe Illustrator 21.1.0, SVG Export Plug-In . SVG Version: 6.00 Build 0)  -->
<svg version="1.1" id="Layer_1" xmlns="http://www.w3.org/2000/svg" xmlns:xlink="http://www.w3.org/1999/xlink" x="0px" y="0px"
	 viewBox="0 0 600 600" style="enable-background:new 0 0 600 600;" xml:space="preserve">
<style type="text/css">
	.st0{fill:#333333;}
	.st1{fill:#00AEDD;stroke:#333333;stroke-miterlimit:10;}
	.st2{fill:#FFFFFF;}
	.st3{font-family:'Blanch-Caps';}
	.st4{font-size:62.2272px;}
</style>
<g>
	<path class="st0" d="M490.8,126.9h-7.7v3.1h7.7V126.9L490.8,126.9z M480,126.9h-7.7v3.1h7.7V126.9L480,126.9z M469.2,126.9h-7.7
		v3.1h7.7V126.9L469.2,126.9z M458.4,126.9h-7.7v3.1h7.7V126.9L458.4,126.9z M447.6,126.9h-7.7v3.1h7.7V126.9L447.6,126.9z
		 M436.7,126.9H429v3.1h7.7V126.9L436.7,126.9z M425.9,126.9h-7.7v3.1h7.7V126.9L425.9,126.9z M415.1,126.9h-7.7v3.1h7.7V126.9
		L415.1,126.9z M404.3,126.9h-7.7v3.1h7.7V126.9L404.3,126.9z M393.4,126.9h-7.7v3.1h7.7V126.9L393.4,126.9z M382.6,126.9h-7.7v3.1
		h7.7V126.9L382.6,126.9z M371.8,126.9h-7.7v3.1h7.7V126.9L371.8,126.9z M361,126.9h-7.7v3.1h7.7V126.9L361,126.9z M350.2,126.9
		h-7.7v3.1h7.7V126.9L350.2,126.9z M339.3,126.9h-7.7v3.1h7.7V126.9L339.3,126.9z M328.5,126.9h-7.7v3.1h7.7V126.9L328.5,126.9z
		 M317.7,126.9H310v3.1h7.7V126.9L317.7,126.9z M306.9,126.9h-7.7v3.1h7.7V126.9L306.9,126.9z M296,126.9h-7.7v3.1h7.7V126.9
		L296,126.9z M285.2,126.9h-7.7v3.1h7.7V126.9L285.2,126.9z M274.4,126.9h-7.7v3.1h7.7V126.9L274.4,126.9z M263.6,126.9h-7.7v3.1
		h7.7V126.9L263.6,126.9z M252.7,126.9H245v3.1h7.7V126.9L252.7,126.9z M241.9,126.9h-7.7v3.1h7.7V126.9L241.9,126.9z M231.1,126.9
		h-7.7v3.1h7.7V126.9L231.1,126.9z M220.3,126.9h-7.7v3.1h7.7V126.9L220.3,126.9z M209.5,126.9h-7.7v3.1h7.7V126.9L209.5,126.9z
		 M198.6,126.9h-7.7v3.1h7.7V126.9L198.6,126.9z M187.8,126.9h-7.7v3.1h7.7V126.9L187.8,126.9z M177,126.9h-7.7v3.1h7.7V126.9
		L177,126.9z M166.2,126.9h-7.7v3.1h7.7V126.9L166.2,126.9z M155.3,126.9h-7.7v3.1h7.7V126.9L155.3,126.9z M144.5,126.9h-7.7v3.1
		h7.7V126.9L144.5,126.9z M133.7,126.9H126v3.1h7.7V126.9L133.7,126.9z M122.9,126.9h-7.7v3.1h7.7V126.9L122.9,126.9z M112.1,126.9
		h-7.7v3.1h7.7V126.9L112.1,126.9z M101.2,126.9h-0.9c-2.6,0-5,0.2-7.3,0.6l0.5,3.1c0.2,0,0.4-0.1,0.6-0.1l0,0c0,0,0,0,0,0
		c0,0,0,0,0,0c0,0,0.1,0,0.1,0h0c0,0,0,0,0,0l0,0c0,0,0.1,0,0.1,0l0,0c0,0,0,0,0,0c0,0,0,0,0,0c0,0,0,0,0,0c0,0,0,0,0,0c0,0,0,0,0,0
		h0c0,0,0,0,0.1,0c0,0,0,0,0,0c0,0,0,0,0,0c0,0,0,0,0,0c0,0,0,0,0,0c0,0,0,0,0,0c0,0,0,0,0,0c0,0,0,0,0,0c0,0,0,0,0,0l0,0
		c0,0,0,0,0,0c0,0,0,0,0,0c0,0,0,0,0,0c0,0,0,0,0,0c0,0,0,0,0,0c0,0,0,0,0,0c0,0,0,0,0,0c0,0,0,0,0,0c0,0,0,0,0,0h0c0,0,0,0,0,0
		c0,0,0,0,0,0c0,0,0,0,0,0c0,0,0,0,0,0c0,0,0,0,0,0c0,0,0,0,0,0c0,0,0,0,0,0c0,0,0,0,0,0c0,0,0,0,0,0c0,0,0,0,0,0c0,0,0,0,0,0
		c0,0,0,0,0,0c0,0,0,0,0,0c0,0,0,0,0,0c0,0,0,0,0,0c0,0,0,0,0,0c0,0,0,0,0,0c0,0,0,0,0,0s0,0,0,0c0,0,0,0,0,0c0,0,0,0,0,0
		c0,0,0,0,0,0c0,0,0,0,0,0c0,0,0,0,0,0c0,0,0,0,0,0c0,0,0,0,0,0c0,0,0,0,0,0c0,0,0,0,0,0c0,0,0,0,0,0c0,0,0,0,0,0h0c0,0,0,0,0,0
		c0,0,0,0,0,0c0,0,0,0,0,0c0,0,0,0,0,0c0,0,0,0,0,0c0,0,0,0,0,0c0,0,0,0,0,0c0,0,0,0,0,0c0,0,0.1,0,0.1,0c0,0,0,0,0,0c0,0,0,0,0,0
		c0,0,0,0,0,0c0,0,0,0,0,0c0,0,0,0,0,0c0,0,0.1,0,0.1,0h0c0,0,0,0,0,0c0,0,0,0,0,0c0,0,0,0,0,0c0,0,0,0,0,0c0,0,0.1,0,0.1,0
		c0,0,0,0,0,0c0,0,0,0,0,0c0,0,0,0,0,0c0,0,0,0,0,0c0,0,0,0,0,0c0,0,0.1,0,0.1,0h0c0,0,0,0,0,0h0c0,0,0.1,0,0.1,0l0,0c0,0,0,0,0,0
		c0,0,0,0,0,0c0,0,0.1,0,0.1,0c0,0,0,0,0,0c0,0,0,0,0,0c0,0,0,0,0,0c0,0,0,0,0,0l0,0c0,0,0.1,0,0.1,0c0,0,0,0,0,0c0,0,0,0,0,0
		c0,0,0,0,0,0c0,0,0,0,0,0c0,0,0,0,0,0c0,0,0.1,0,0.1,0c0,0,0,0,0,0c0,0,0,0,0,0c0,0,0,0,0,0c0,0,0,0,0,0h0c0,0,0.1,0,0.1,0
		c0,0,0,0,0,0c0,0,0,0,0,0c0,0,0,0,0,0c0,0,0,0,0,0c0,0,0,0,0,0c0,0,0.1,0,0.1,0c0,0,0,0,0,0c0,0,0,0,0,0c0,0,0,0,0,0c0,0,0,0,0,0
		c0,0,0,0,0,0c0,0,0.1,0,0.1,0c0,0,0,0,0,0c0,0,0,0,0,0c0,0,0,0,0,0c0,0,0,0,0,0c0,0,0,0,0,0c0,0,0,0,0.1,0c0,0,0,0,0,0c0,0,0,0,0,0
		c0,0,0,0,0,0c0,0,0,0,0,0h0c0,0,0,0,0,0c0,0,0,0,0,0c0,0,0,0,0.1,0c0,0,0,0,0,0c0,0,0,0,0,0c0,0,0,0,0,0c0,0,0,0,0,0c0,0,0,0,0,0
		c0,0,0,0,0,0c0,0,0,0,0,0c0,0,0,0,0,0c0,0,0,0,0,0c0,0,0,0,0,0c0,0,0,0,0,0c0,0,0,0,0,0c0,0,0,0,0,0c0,0,0,0,0,0c0,0,0,0,0,0
		c0,0,0,0,0,0c0,0,0,0,0,0c0,0,0,0,0,0c0,0,0,0,0,0c0,0,0,0,0,0c0,0,0,0,0,0c0,0,0,0,0,0c0,0,0,0,0,0c0,0,0,0,0,0c0,0,0,0,0,0
		c0,0,0,0,0,0c0,0,0,0,0,0c0,0,0,0,0,0c0,0,0,0,0,0c0,0,0,0,0,0c0,0,0,0,0,0c0,0,0,0,0,0c0,0,0,0,0,0c0,0,0,0,0,0c0,0,0,0,0,0
		c0,0,0,0,0,0c0,0,0,0,0,0c0,0,0,0,0,0c0,0,0,0,0,0c0,0,0,0,0,0c0,0,0,0,0,0c0,0,0,0,0,0c0,0,0,0,0,0c0,0,0,0,0,0c0,0,0,0,0,0
		c0,0,0,0,0,0c0,0,0,0,0,0c0,0,0,0,0,0c0,0,0,0,0,0c0,0,0,0,0,0c0,0,0,0,0,0c0,0,0,0,0,0s0,0,0,0c0,0,0,0,0,0c0,0,0,0,0,0
		c0,0,0,0,0,0c0,0,0,0,0,0c0,0,0,0,0,0c0,0,0,0,0,0c0,0,0,0,0,0c0,0,0,0,0,0c0,0,0,0,0,0c0,0,0,0,0,0c0,0,0,0,0,0c0,0,0,0,0,0
		c0,0,0,0,0,0c0,0,0,0,0,0c0,0,0,0,0,0c0,0,0,0,0,0c0,0,0,0,0,0c0,0,0,0,0,0c0,0,0,0,0,0c0,0,0,0,0,0c0,0,0,0,0,0c0,0,0,0,0,0
		c0,0,0,0,0,0c0,0,0,0,0,0c0,0,0,0,0,0c0,0,0,0,0,0c0,0,0,0,0,0c0,0,0,0,0,0c0,0,0,0,0,0c0,0,0,0,0,0c0,0,0,0,0,0c0,0,0,0,0,0
		c0,0,0,0,0,0c0,0,0,0,0,0c0,0,0,0,0,0c0,0,0,0,0,0c0,0,0,0,0,0c0,0,0,0,0,0c0,0,0,0,0,0c0,0,0,0,0,0c0,0,0,0,0,0c0,0,0,0,0,0
		c0,0,0,0,0,0c0,0,0,0,0,0c0,0,0,0,0,0c0,0,0,0,0,0c0,0,0,0,0,0c0,0,0,0,0,0c0,0,0,0,0,0c0,0,0,0,0,0c0,0,0,0,0,0c0,0,0,0,0,0
		c0,0,0,0,0,0c0,0,0,0,0,0c0,0,0,0,0,0c0,0,0,0,0,0c0,0,0,0,0,0s0,0,0,0c0,0,0,0,0,0s0,0,0,0c0,0,0,0,0,0c0,0,0,0,0,0c0,0,0,0,0,0
		c0,0,0,0,0,0c0,0,0,0,0,0c0,0,0,0,0,0c0,0,0,0,0,0c0,0,0,0,0,0c0,0,0,0,0,0c0,0,0,0,0,0c0,0,0,0,0,0c0,0,0,0,0,0c0,0,0,0,0,0
		c0,0,0,0,0,0c0,0,0,0,0,0c0,0,0,0,0,0c0,0,0,0,0,0c0,0,0,0,0,0c0,0,0,0,0,0c0,0,0,0,0,0h0c0,0,0,0,0,0c0,0,0,0,0,0c0,0,0,0,0,0
		c0,0,0,0,0,0c0,0,0,0,0,0c0,0,0,0,0,0c0,0,0,0,0,0c0,0,0,0,0,0c0,0,0,0,0,0c0,0,0,0,0,0c0,0,0,0,0,0c0,0,0,0,0,0c0,0,0,0,0,0
		c0,0,0,0,0,0c0,0,0,0,0,0c0,0,0,0,0,0c0,0,0,0,0,0c0,0,0,0,0,0c0,0,0,0,0,0l0,0c0,0,0,0,0,0c0,0,0,0,0,0c0,0,0,0,0,0c0,0,0,0,0,0
		c0,0,0,0,0,0c0,0,0,0,0,0c0,0,0,0,0,0c0,0,0,0,0,0c0,0,0,0,0,0h0c0,0,0,0,0,0c0,0,0,0,0,0c0,0,0,0,0,0c0,0,0,0,0,0c0,0,0,0,0,0
		c0,0,0,0,0,0c0,0,0,0,0,0c0,0,0,0,0,0c0,0,0,0,0,0h0.9V126.9L101.2,126.9z M89.7,128.1c-3,0.8-5.7,1.9-8,3.4l1.7,2.6v0c0,0,0,0,0,0
		c0,0,0,0,0,0c0,0,0,0,0,0c0,0,0,0,0,0c0,0,0,0,0,0c0,0,0,0,0,0c0,0,0,0,0,0c0,0,0,0,0,0c0,0,0,0,0,0c0,0,0,0,0,0c0,0,0,0,0,0
		c0,0,0,0,0,0c0,0,0,0,0,0h0c0,0,0,0,0,0c0,0,0,0,0,0c0,0,0,0,0,0c0,0,0,0,0,0c0,0,0,0,0,0l0,0c0,0,0,0,0,0c0,0,0,0,0,0
		c0,0,0,0,0.1,0c0,0,0,0,0,0c0,0,0,0,0,0c0,0,0,0,0,0c0,0,0,0,0,0c0,0,0,0,0,0c0,0,0.1,0,0.1-0.1l0,0c0,0,0,0,0,0h0
		c0.6-0.4,1.2-0.7,1.9-1l0,0c0,0,0.1,0,0.1-0.1l0,0c0,0,0,0,0,0c0,0,0,0,0,0c0,0,0,0,0,0l0,0c0,0,0.1,0,0.1-0.1c0,0,0,0,0,0
		c0,0,0,0,0,0c0,0,0,0,0,0c0,0,0,0,0,0v0c0,0,0.1,0,0.1,0c0,0,0,0,0,0c0,0,0,0,0,0c0,0,0,0,0,0c0,0,0,0,0,0l0,0c0,0,0,0,0,0
		c0,0,0,0,0,0c0,0,0,0,0.1,0c0,0,0,0,0,0c0,0,0,0,0,0c0,0,0,0,0,0c0,0,0,0,0,0c0,0,0,0,0,0c0,0,0,0,0,0c0,0,0,0,0,0c0,0,0,0,0,0
		c0,0,0,0,0,0c0,0,0,0,0,0c0,0,0,0,0,0c0,0,0,0,0,0c0,0,0,0,0,0c0,0,0,0,0,0c0,0,0,0,0,0c0,0,0,0,0,0c0,0,0,0,0,0c0,0,0,0,0,0
		c0,0,0,0,0,0c0,0,0,0,0,0c0,0,0,0,0,0c0,0,0,0,0,0c0,0,0,0,0,0c0,0,0,0,0,0c0,0,0,0,0,0c0,0,0,0,0,0c0,0,0,0,0,0c0,0,0,0,0,0
		c0,0,0,0,0,0c0,0,0,0,0,0c0,0,0,0,0.1,0c0,0,0,0,0,0c0,0,0,0,0,0c0,0,0,0,0,0c0,0,0,0,0,0c0,0,0,0,0,0c0,0,0,0,0,0c0,0,0,0,0,0
		c0,0,0.1,0,0.1,0v0c0,0,0,0,0,0c0,0,0,0,0,0c0,0,0,0,0,0c0,0,0,0,0,0c0,0,0,0,0,0l0,0c0,0,0.1,0,0.1,0l0,0c0,0,0,0,0,0h0
		c0,0,0,0,0,0l0,0c1-0.4,2.1-0.8,3.3-1.1L89.7,128.1L89.7,128.1z M78.9,133.8c-2.3,2.1-4,4.6-5.1,7.5l2.9,1.1
		c0.9-2.4,2.4-4.5,4.3-6.3L78.9,133.8L78.9,133.8z M72.8,144.8c-0.5,2.8-0.5,5.7,0.1,8.8l3-0.6c0,0,0,0,0,0c0,0,0,0,0,0c0,0,0,0,0,0
		c0,0,0,0,0,0c0,0,0,0,0,0c0,0,0,0,0,0c0,0,0,0,0-0.1c0,0,0,0,0,0c0,0,0,0,0,0c0,0,0,0,0,0c0,0,0,0,0,0c0,0,0,0,0,0c0,0,0-0.1,0-0.1
		c0,0,0,0,0,0c0,0,0,0,0,0v0c-0.4-2.6-0.4-5.1,0-7.4L72.8,144.8L72.8,144.8z M76.7,156l-3,0.9c0.7,2.5,1.8,5.1,3.2,7.7l2.7-1.5
		c-1.1-2.1-2-4.2-2.7-6.2v0c0,0,0,0,0,0c0,0,0,0,0,0c0,0,0,0,0,0l0,0c0,0,0,0,0,0c0,0,0,0,0,0c0,0,0,0,0,0c0,0,0,0,0,0c0,0,0,0,0,0
		c0,0,0,0,0,0c0,0,0,0,0,0c0,0,0,0,0,0c0,0,0,0,0,0c0,0,0,0,0,0c0,0,0,0,0,0c0,0,0,0,0,0c0,0,0,0,0,0c0,0,0,0,0,0c0,0,0,0,0,0
		c0,0,0,0,0,0l0,0c0,0,0,0,0,0c0,0,0,0,0,0c0,0,0,0,0,0c0,0,0,0,0,0c0,0,0,0,0,0c0,0,0,0,0,0c0,0,0,0,0,0l0,0
		C76.8,156.4,76.7,156.2,76.7,156L76.7,156z M81.2,165.8l-2.6,1.6c0.2,0.3,0.3,0.5,0.5,0.8l3.7,5.8l2.6-1.7c0,0-3.2-4.9-3.7-5.7l0,0
		c0,0,0,0,0,0l0,0c0,0,0,0,0,0l0,0c0,0,0,0,0,0l0,0c0,0,0,0,0,0l0,0c0,0,0,0,0,0l0,0l0,0l0,0c0,0,0,0,0,0l0,0c0,0,0,0,0,0l0,0l0,0
		l0,0l0,0c0,0,0,0,0,0h0c-0.1-0.2-0.2-0.3-0.3-0.5l0,0c0,0,0,0,0-0.1c0,0,0,0,0,0c0,0,0,0,0,0C81.3,165.9,81.3,165.9,81.2,165.8
		C81.3,165.9,81.3,165.9,81.2,165.8L81.2,165.8C81.2,165.9,81.2,165.9,81.2,165.8L81.2,165.8C81.2,165.9,81.2,165.9,81.2,165.8
		C81.2,165.8,81.2,165.8,81.2,165.8L81.2,165.8L81.2,165.8z M87.1,174.9l-2.6,1.7l4.2,6.5l2.6-1.7c0,0-1.1-1.6-2.1-3.3h0
		c0,0,0,0,0,0l0,0c0,0,0,0,0,0L87.1,174.9L87.1,174.9z M92.9,184l-2.6,1.7l4.2,6.5l2.6-1.7c0,0-0.7-1.1-1.6-2.4l0,0c0,0,0,0,0,0
		L92.9,184L92.9,184z M98.8,193.1l-2.6,1.7l4.2,6.5l2.6-1.7c0,0-0.5-0.7-1.1-1.6L98.8,193.1L98.8,193.1z M104.7,202.2l-2.6,1.7
		l4.2,6.5l2.6-1.7c0,0-0.2-0.3-0.5-0.8L104.7,202.2L104.7,202.2z M110.6,211.3L108,213l4.2,6.5l2.6-1.7l0,0l0,0l0,0l0,0l0,0v0
		c0,0,0,0,0,0l0,0c0,0,0,0,0,0l0,0l0,0h0C114.4,217.3,110.6,211.3,110.6,211.3L110.6,211.3z M116.4,220.4l-2.6,1.7l4.2,6.5l2.6-1.7
		l-1.1-1.7c0,0,0,0,0,0l0,0c0,0,0,0,0,0l0,0v0l0,0c0,0,0,0,0,0l0,0C118.2,223.1,116.4,220.4,116.4,220.4L116.4,220.4z M122.3,229.5
		l-2.6,1.7l4.2,6.5l2.6-1.7l-3.6-5.6C122.5,229.8,122.3,229.5,122.3,229.5L122.3,229.5z M128.2,238.6l-2.6,1.7l4.2,6.5l2.6-1.7
		L128.2,238.6L128.2,238.6z M134.1,247.6l-2.6,1.7l4.2,6.5l2.6-1.7h0v0c0,0,0,0,0,0l0,0c0,0,0,0,0,0l0,0h0v0l0,0h0v0l0,0
		c0,0,0,0,0,0h0c0,0,0,0,0,0l0,0c0,0,0,0,0,0l0,0c0,0,0,0,0,0l0,0c0,0,0,0,0,0l0,0c0,0,0,0,0,0l0,0c0,0,0,0,0,0v0c0,0,0,0,0,0l0,0
		c0,0,0,0,0,0h0c0,0,0,0,0,0l0,0l0,0l0,0v0l0,0c0,0,0-0.1-0.1-0.1l0,0c0,0,0,0,0-0.1l0,0c0,0,0,0,0,0v0c0,0,0,0,0,0l0,0c0,0,0,0,0,0
		l0,0c0,0,0,0,0,0l0,0c0,0,0,0,0,0l0,0l0,0l0,0c0,0,0,0,0,0l0,0c0,0,0,0,0,0l0,0c0,0,0,0,0,0l0-0.1c0,0,0,0,0,0l-0.1-0.2
		c0,0,0,0,0,0l0,0c0,0,0,0,0,0l-0.1-0.1c0,0,0,0,0,0l-0.1-0.1c0,0,0,0,0,0l0,0c0,0,0,0,0,0L134.1,247.6L134.1,247.6z M139.9,256.7
		l-2.6,1.7l4.2,6.5l2.6-1.7L139.9,256.7L139.9,256.7z M145.8,265.8l-2.6,1.7l4.2,6.5l2.6-1.7L145.8,265.8L145.8,265.8z M151.7,274.9
		l-2.6,1.7l4.2,6.5l2.6-1.7L151.7,274.9L151.7,274.9z M157.5,284l-2.6,1.7l4.2,6.5l2.6-1.7L157.5,284L157.5,284z M163.4,293.1
		l-2.6,1.7l4.2,6.5l2.6-1.7L163.4,293.1L163.4,293.1z M169.3,302.2l-2.6,1.7l4.2,6.5l2.6-1.7L169.3,302.2L169.3,302.2z M175.2,311.3
		l-2.6,1.7l4.2,6.5l2.6-1.7l-2.7-4.1c0,0,0,0,0,0l0,0c0,0,0,0,0,0l0,0c0,0,0,0,0,0l0,0c0,0,0,0,0,0l0,0
		C175.8,312.3,175.2,311.3,175.2,311.3L175.2,311.3z M181,320.4l-2.6,1.7l4.2,6.5l2.6-1.7l-3-4.7l0,0l0-0.1c0,0,0,0,0,0l0,0
		C181.5,321.1,181,320.4,181,320.4L181,320.4z M186.9,329.5l-2.6,1.7l4.2,6.5l2.6-1.7L186.9,329.5L186.9,329.5z M192.8,338.5
		l-2.6,1.7l4.2,6.5l2.6-1.7L192.8,338.5L192.8,338.5z M198.7,347.6l-2.6,1.7l4.2,6.5l2.6-1.7c0,0-1.5-2.3-2.7-4.2l0,0c0,0,0,0,0,0v0
		c0,0,0,0,0,0v0c0,0,0,0,0,0l0,0c0,0,0,0,0,0l0,0c0,0,0,0,0,0l0,0c0,0,0,0,0,0l0,0c0,0,0,0,0,0l0,0c0,0,0,0,0,0l0,0
		c0-0.1-0.1-0.1-0.1-0.2l0,0c0,0,0,0,0,0l0,0c0,0,0,0,0-0.1l0,0c0,0,0,0,0,0l0,0l0,0l0,0c0,0,0,0,0,0l0,0c0,0,0,0,0,0l0,0l0,0l0,0
		c0,0,0,0,0,0l0,0l0,0l0,0c0,0,0,0,0,0l0-0.1c0,0,0,0,0,0l0,0c0,0,0,0,0,0l0,0c0,0,0,0,0,0l0,0c0,0,0,0,0,0l0,0c0,0,0,0,0,0l0,0
		c0,0,0,0,0,0l0,0l0,0l0,0l0,0l0,0c0,0,0,0,0,0l0,0c0,0,0,0,0,0l0,0c0,0,0,0,0,0l0,0c0,0,0,0,0,0l0-0.1l0,0l0-0.1c0,0,0,0,0,0l0,0
		l0,0l0,0c0,0,0,0,0,0l0,0c0,0,0,0,0-0.1l0,0l0,0l0-0.1l0,0l0,0l0,0l0,0l0,0l0,0c0,0,0,0,0,0l-0.1-0.1c0,0,0,0,0,0l0,0c0,0,0,0,0,0
		l0,0c0,0,0,0,0,0l0,0c0,0,0,0,0,0l0,0l0,0l-0.1-0.1l0,0l-0.1-0.1l0,0l0,0c0,0,0,0,0,0l0-0.1l0,0l0-0.1l0,0L198.7,347.6L198.7,347.6
		L198.7,347.6L198.7,347.6L198.7,347.6L198.7,347.6L198.7,347.6L198.7,347.6L198.7,347.6L198.7,347.6L198.7,347.6L198.7,347.6
		L198.7,347.6z M204.5,356.7l-2.6,1.7l4.2,6.5l2.6-1.7L204.5,356.7L204.5,356.7z M210.4,365.8l-2.6,1.7l4.2,6.5l2.6-1.7L210.4,365.8
		L210.4,365.8z M216.3,374.9l-2.6,1.7l4.2,6.5l2.6-1.7L216.3,374.9L216.3,374.9z M222.2,384l-2.6,1.7l4.2,6.5l2.6-1.7L222.2,384
		L222.2,384z M228,393.1l-2.6,1.7l4.2,6.5l2.6-1.7L228,393.1L228,393.1z M233.9,402.2l-2.6,1.7l4.2,6.5l2.6-1.7L233.9,402.2
		L233.9,402.2z M239.8,411.3l-2.6,1.7l4.2,6.5l2.6-1.7l-2.5-3.8c0,0,0,0,0,0l0-0.1l0,0l0,0c0,0,0,0,0,0l0,0c0,0,0,0,0,0l0,0
		C240.5,412.4,239.8,411.3,239.8,411.3L239.8,411.3z M245.6,420.4L243,422l4.2,6.5l2.6-1.7l-2.9-4.4c0,0,0,0,0,0l0-0.1c0,0,0,0,0,0
		l0,0C246.2,421.2,245.6,420.4,245.6,420.4L245.6,420.4z M251.5,429.4l-2.6,1.7l4.2,6.5l2.6-1.7L251.5,429.4L251.5,429.4z
		 M257.4,438.5l-2.6,1.7l4.2,6.5l2.6-1.7L257.4,438.5L257.4,438.5z M263.3,447.6l-2.6,1.7l4.2,6.5l2.6-1.7L263.3,447.6L263.3,447.6z
		 M269.1,456.7l-2.6,1.7l2.8,4.4c0.5,0.8,1,1.5,1.5,2.2l2.5-1.8c-0.1-0.2-0.3-0.4-0.4-0.6l0,0c0,0,0,0,0,0c0,0,0,0,0,0c0,0,0,0,0,0
		c0,0,0,0,0,0c0,0,0,0,0,0c0,0,0,0,0,0c0,0,0,0,0,0c0,0,0,0,0,0c0,0,0,0,0,0c0,0,0,0,0,0c0,0,0,0,0,0c0,0,0,0,0,0c0,0,0,0,0,0
		c0,0,0,0,0,0c0,0,0,0,0,0c0,0,0,0,0,0c0,0,0,0,0,0c-0.3-0.4-0.5-0.7-0.8-1.1l0,0c0,0,0,0,0,0c0,0,0,0,0,0c0,0,0,0,0,0c0,0,0,0,0,0
		c0,0,0,0,0,0L269.1,456.7L269.1,456.7z M275.3,465.6l-2.4,2c1.9,2.2,3.9,4.2,6.1,5.8l1.9-2.5c-0.5-0.4-0.9-0.7-1.4-1.1c0,0,0,0,0,0
		c0,0,0,0,0,0c0,0,0,0,0,0c0,0,0,0,0,0c0,0,0,0,0,0c0,0,0,0,0,0c0,0,0,0,0,0c0,0,0,0,0,0c0,0,0,0,0,0c0,0,0,0,0,0c0,0,0,0,0,0
		c0,0,0,0,0,0c0,0,0,0,0,0c0,0,0,0,0,0c0,0,0,0,0,0v0c0,0,0,0,0,0c0,0,0,0,0,0c0,0,0,0,0,0v0c0,0,0,0,0,0l0,0c0,0,0,0,0,0
		c0,0,0,0,0,0C277.8,468.4,276.5,467.1,275.3,465.6L275.3,465.6z M283.4,472.7l-1.6,2.7c2.6,1.5,5.3,2.6,8,3.3l0.7-3
		C288.1,475,285.7,474.1,283.4,472.7L283.4,472.7z M301.3,475.4c-1.3,0.3-2.5,0.6-3.8,0.7h0c0,0,0,0,0,0h0c0,0,0,0,0,0l0,0
		c0,0,0,0,0,0l0,0c0,0-0.1,0-0.1,0l0,0c0,0,0,0,0,0c0,0,0,0,0,0c0,0,0,0,0,0l0,0c0,0,0,0,0,0c0,0,0,0,0,0c0,0,0,0,0,0l0,0
		c0,0-0.1,0-0.1,0c0,0,0,0,0,0c0,0,0,0,0,0c0,0,0,0,0,0c0,0,0,0,0,0h0c0,0,0,0,0,0h0c0,0,0,0,0,0l0,0c0,0,0,0-0.1,0l0,0c0,0,0,0,0,0
		c0,0,0,0,0,0c0,0,0,0,0,0c0,0,0,0,0,0c0,0,0,0,0,0c0,0,0,0,0,0c0,0,0,0,0,0c0,0,0,0,0,0c0,0,0,0,0,0c0,0,0,0,0,0c0,0,0,0-0.1,0h0
		c0,0,0,0,0,0c0,0,0,0,0,0c0,0,0,0,0,0c0,0,0,0,0,0c0,0,0,0,0,0c0,0,0,0,0,0c0,0,0,0,0,0c0,0,0,0,0,0c0,0,0,0,0,0c0,0,0,0,0,0
		c0,0,0,0,0,0c0,0,0,0,0,0c0,0,0,0,0,0c0,0,0,0,0,0c0,0,0,0,0,0c0,0,0,0,0,0c0,0,0,0,0,0c0,0,0,0,0,0c0,0,0,0,0,0c0,0,0,0,0,0
		c0,0,0,0,0,0c0,0,0,0,0,0c0,0,0,0,0,0c0,0,0,0,0,0c0,0,0,0,0,0c0,0,0,0,0,0c0,0,0,0,0,0c0,0,0,0,0,0c0,0,0,0,0,0c0,0,0,0,0,0
		c0,0,0,0,0,0c0,0,0,0,0,0c0,0,0,0,0,0c0,0,0,0,0,0c0,0,0,0,0,0c0,0,0,0,0,0c0,0,0,0,0,0c0,0,0,0,0,0c0,0,0,0,0,0c0,0,0,0,0,0
		c0,0,0,0,0,0c0,0,0,0,0,0c0,0,0,0,0,0c0,0,0,0,0,0c0,0,0,0,0,0c0,0,0,0,0,0c0,0,0,0,0,0c0,0,0,0,0,0c0,0,0,0,0,0c0,0,0,0,0,0
		c0,0,0,0,0,0h0c0,0,0,0,0,0l0,0c0,0,0,0,0,0c0,0,0,0,0,0c0,0,0,0,0,0c0,0,0,0,0,0c0,0,0,0,0,0c0,0,0,0,0,0c0,0,0,0,0,0c0,0,0,0,0,0
		c0,0,0,0,0,0c0,0,0,0,0,0c0,0,0,0,0,0c0,0,0,0,0,0c0,0,0,0,0,0c0,0,0,0,0,0c0,0,0,0,0,0c0,0,0,0,0,0c0,0,0,0,0,0c0,0,0,0,0,0
		c0,0,0,0,0,0c0,0,0,0,0,0c0,0,0,0,0,0c0,0,0,0,0,0c0,0,0,0,0,0c0,0,0,0,0,0c0,0,0,0,0,0c0,0,0,0,0,0c0,0,0,0,0,0c0,0,0,0,0,0
		c0,0,0,0,0,0l0,0c0,0,0,0,0,0c0,0,0,0,0,0c0,0,0,0,0,0c0,0,0,0,0,0c0,0,0,0,0,0c0,0,0,0,0,0c0,0,0,0,0,0c0,0,0,0,0,0c0,0,0,0,0,0
		c0,0,0,0,0,0c0,0,0,0,0,0c0,0,0,0,0,0c0,0,0,0,0,0c0,0,0,0,0,0s0,0,0,0c0,0,0,0-0.1,0c0,0,0,0,0,0c0,0,0,0,0,0h0
		c-0.6,0-1.1,0-1.7-0.1l-0.3,3.1c0.8,0.1,1.5,0.1,2.3,0.1c2.2,0,4.3-0.3,6.5-0.8L301.3,475.4L301.3,475.4z M310.8,470.5
		c-2.1,1.7-4.4,3-6.6,3.9l1.2,2.9c2.6-1,5.1-2.5,7.4-4.4L310.8,470.5L310.8,470.5z M318.2,462.7c-0.8,1.2-1.7,2.3-2.6,3.3v0
		c0,0,0,0,0,0c0,0,0,0,0,0c0,0,0,0,0,0c0,0,0,0,0,0c0,0,0,0,0,0c0,0,0,0,0,0c0,0,0,0,0,0c0,0,0,0,0,0c0,0,0,0,0,0c0,0,0,0,0,0
		c0,0,0,0,0,0c0,0,0,0,0,0c0,0,0,0,0,0c0,0,0,0,0,0c0,0,0,0,0,0c0,0,0,0,0,0c0,0,0,0,0,0c0,0,0,0,0,0c0,0,0,0,0,0c0,0,0,0,0,0
		c0,0,0,0,0,0c0,0,0,0,0,0c0,0,0,0,0,0c0,0,0,0.1-0.1,0.1c0,0,0,0,0,0c0,0,0,0,0,0c0,0,0,0,0,0c0,0,0,0,0,0c0,0,0,0,0,0c0,0,0,0,0,0
		c0,0,0,0,0,0c0,0,0,0,0,0c0,0,0,0,0,0c0,0,0,0,0,0c0,0,0,0,0,0c0,0,0,0,0,0c0,0,0,0,0,0c0,0,0,0,0,0h0c0,0,0,0,0,0c0,0,0,0,0,0
		c-0.7,0.7-1.3,1.4-2,2l2.1,2.2c1.9-1.8,3.7-4,5.4-6.3L318.2,462.7L318.2,462.7z M324.1,453.6c0,0-1.4,2.2-2.6,4l0,0c0,0,0,0,0,0
		l0,0c0,0,0,0,0,0l0,0l0,0l0,0c0,0,0,0,0,0l0,0c0,0,0,0,0,0l-1.5,2.3l2.6,1.7l4.2-6.5L324.1,453.6L324.1,453.6z M329.9,444.5
		l-4.2,6.5l2.6,1.7l4.2-6.5L329.9,444.5L329.9,444.5z M335.8,435.4l-2.8,4.4l0,0l0,0c0,0,0,0,0,0l0,0c-0.7,1.2-1.3,2.1-1.3,2.1
		l2.6,1.7l4.2-6.5L335.8,435.4L335.8,435.4z M341.7,426.3l-4.2,6.5l2.6,1.7l4.2-6.5L341.7,426.3L341.7,426.3z M347.6,417.2l-2.4,3.7
		c0,0,0,0,0,0l0,0c-0.9,1.4-1.8,2.7-1.8,2.7l2.6,1.7l4.2-6.5L347.6,417.2L347.6,417.2z M353.4,408.1c0,0-1.7,2.6-2.9,4.5v0
		c0,0,0,0,0,0l0,0c0,0,0,0,0,0l0,0c0,0,0,0,0,0l-1.2,1.9l2.6,1.7l4.2-6.5L353.4,408.1L353.4,408.1z M359.3,399l-2.6,4.1c0,0,0,0,0,0
		l0,0l0,0l0,0c0,0,0,0,0,0l0,0c-0.8,1.3-1.5,2.4-1.5,2.4l2.6,1.7l4.2-6.5L359.3,399L359.3,399z M365.2,389.9l-4.2,6.5l2.6,1.7
		l4.2-6.5L365.2,389.9L365.2,389.9z M371.1,380.9l-4.2,6.5l2.6,1.7l4.2-6.5L371.1,380.9L371.1,380.9z M376.9,371.8
		c0,0-1.9,3-3.2,4.9l0,0c0,0,0,0,0,0.1l0,0c0,0,0,0,0,0l0,0c0,0,0,0,0,0l-0.9,1.4l2.6,1.7l4.2-6.5L376.9,371.8L376.9,371.8z
		 M382.8,362.7c0,0-1.9,2.9-3.1,4.8l0,0c0,0,0,0,0,0l0,0c0,0,0,0,0,0l0,0c0,0,0,0,0,0l0,0c0,0,0,0,0,0l0,0c0,0,0,0,0,0l0,0
		c0,0,0,0,0,0l-1,1.5l2.6,1.7l4.2-6.5L382.8,362.7L382.8,362.7z M388.7,353.6l-2.4,3.8c0,0,0,0,0,0l0,0c0,0,0,0,0,0l0,0
		c-0.9,1.4-1.7,2.7-1.7,2.7l2.6,1.7l4.2-6.5L388.7,353.6L388.7,353.6z M394.6,344.5c0,0,0,0-0.1,0.1l0,0c0,0,0,0.1-0.1,0.1v0
		c0,0,0,0,0,0v0c0,0,0,0,0,0l0,0l0,0v0c0,0,0,0,0,0l0,0l0,0l0,0c0,0,0,0,0,0l-4,6.1l2.6,1.7l4.2-6.5L394.6,344.5L394.6,344.5z
		 M400.4,335.4l-4.2,6.5l2.6,1.7l4.2-6.5L400.4,335.4L400.4,335.4z M406.3,326.3c0,0-2.2,3.4-3.4,5.3l0,0c0,0,0,0,0,0l0,0
		c0,0,0,0,0,0l0,0c0,0,0,0,0,0.1l0,0c0,0,0,0,0,0l0,0l0,0l0,0c0,0,0,0,0,0l0,0c0,0,0,0,0,0l0,0c0,0,0,0,0,0l0,0c0,0,0,0,0,0l0,0l0,0
		l-0.6,1l2.6,1.7l4.2-6.5L406.3,326.3L406.3,326.3z M412.2,317.2l-2.1,3.2c0,0,0,0,0,0l0,0.1c0,0,0,0,0,0l0,0.1c-1,1.6-2,3.1-2,3.1
		l2.6,1.7l4.2-6.5L412.2,317.2L412.2,317.2z M418,308.1l-4.2,6.5l2.6,1.7l4.2-6.5L418,308.1L418,308.1z M423.9,299
		c0,0-0.2,0.3-0.5,0.8l0,0c0,0,0,0,0,0l0,0c0,0,0,0,0,0l0,0c0,0,0,0,0,0l-3.6,5.6l2.6,1.7l4.2-6.5L423.9,299L423.9,299z M429.8,290
		l-4.2,6.5l2.6,1.7l4.2-6.5L429.8,290L429.8,290z M435.7,280.9c0,0-2.8,4.3-3.8,5.9l0,0c0,0,0,0,0,0l0,0c0,0,0,0,0,0l-0.4,0.6
		l2.6,1.7l4.2-6.5L435.7,280.9L435.7,280.9z M441.5,271.8l-1.9,2.9c-1.1,1.7-2.3,3.5-2.3,3.5l2.6,1.7l4.2-6.5L441.5,271.8
		L441.5,271.8z M447.4,262.7c0,0-0.4,0.6-0.9,1.4l0,0c0,0,0,0,0,0l-3.3,5.1l2.6,1.7l4.2-6.5L447.4,262.7L447.4,262.7z M453.3,253.6
		l-4.2,6.5l2.6,1.7l4.2-6.5L453.3,253.6L453.3,253.6z M459.2,244.5c0,0-3.7,5.7-4.1,6.4l0,0c0,0,0,0,0,0l0,0l2.6,1.7l4.2-6.5
		L459.2,244.5L459.2,244.5z M465,235.4l-4.2,6.5l2.6,1.7l4.2-6.5L465,235.4L465,235.4z M470.9,226.3l-1.7,2.6
		c-1.2,1.8-2.5,3.9-2.5,3.9l2.6,1.7l4.2-6.5L470.9,226.3L470.9,226.3z M476.8,217.2c0,0-0.5,0.7-1.1,1.7l-3.1,4.8l2.6,1.7l4.2-6.5
		L476.8,217.2L476.8,217.2z M482.6,208.1l-4,6.1l0,0l0,0c0,0,0,0,0,0l0,0c0,0,0,0,0,0l0,0c0,0,0,0,0,0l0,0v0v0
		c-0.1,0.2-0.2,0.3-0.2,0.3l2.6,1.7l4.2-6.5L482.6,208.1L482.6,208.1z M488.5,199.1l-4.2,6.5l2.6,1.7l4.2-6.5L488.5,199.1
		L488.5,199.1z M494.4,190l-1.5,2.3c0,0,0,0,0,0l0,0c0,0,0,0,0,0l0,0c-1.2,1.9-2.7,4.2-2.7,4.2l2.6,1.7l4.2-6.5L494.4,190L494.4,190
		z M500.3,180.9c0,0-0.7,1-1.4,2.2l-2.8,4.3l2.6,1.7l4.2-6.5L500.3,180.9L500.3,180.9z M506.1,171.8c0,0-0.6,0.9-1.4,2.1l0,0
		c0,0,0,0,0,0l-2.8,4.4l2.6,1.7l4.2-6.5L506.1,171.8L506.1,171.8z M511.8,162.6c-0.2,0.4-0.4,0.8-0.6,1.1c0,0,0,0,0,0c0,0,0,0,0,0
		c0,0,0,0,0,0c0,0,0,0,0,0c0,0,0,0,0,0c0,0,0,0,0,0c0,0,0,0,0,0c0,0,0,0,0,0c0,0,0,0,0,0c0,0,0,0,0,0c0,0,0,0,0,0c0,0,0,0,0,0
		c0,0,0,0,0,0c0,0,0,0,0,0c0,0,0,0,0,0c0,0,0,0,0,0c0,0,0,0,0,0c0,0,0,0,0,0c0,0,0,0,0,0c0,0,0,0,0,0c0,0,0,0,0,0c0,0,0,0,0,0
		c0,0,0,0,0,0c0,0,0,0,0,0c0,0,0,0,0,0.1c0,0,0,0,0,0c0,0,0,0,0,0c0,0,0,0,0,0c0,0,0,0,0,0c0,0,0,0,0,0c0,0,0,0,0,0c0,0,0,0,0,0
		c0,0,0,0,0,0c0,0,0,0,0,0c0,0,0,0,0,0c0,0,0,0,0,0c0,0,0,0,0,0c0,0,0,0,0,0c0,0,0,0,0,0c0,0,0,0,0,0c0,0,0,0,0,0c0,0,0,0,0,0
		c0,0,0,0,0,0c0,0,0,0,0,0c0,0,0,0,0,0c0,0,0,0,0,0c0,0,0,0,0,0c0,0,0,0,0,0c0,0,0,0,0,0l0,0c0,0-0.1,0.1-0.1,0.1v0c0,0,0,0,0,0
		c0,0,0,0,0,0c0,0,0,0,0,0l0,0c0,0,0,0,0,0c0,0,0,0,0,0c0,0,0,0,0,0c0,0,0,0,0,0c0,0,0,0,0,0c0,0,0,0,0,0c0,0,0,0,0,0c0,0,0,0,0,0
		c0,0,0,0,0,0c0,0,0,0,0,0c0,0,0,0,0,0c0,0,0,0,0,0c0,0,0,0,0,0c0,0,0,0,0,0c0,0,0,0,0,0c0,0,0,0,0,0c0,0,0,0,0,0c0,0,0,0,0,0
		c0,0,0,0,0,0c0,0,0,0,0,0c0,0,0,0,0,0c0,0,0,0,0,0c0,0,0,0.1,0,0.1l0,0c0,0,0,0,0,0c0,0,0,0,0,0c0,0,0,0,0,0c0,0,0,0,0,0
		c0,0,0,0,0,0c0,0,0,0,0,0c0,0,0,0,0,0c0,0,0,0,0,0c0,0,0,0,0,0c0,0,0,0,0,0c0,0,0,0,0,0c0,0,0,0,0,0c0,0,0,0,0,0c0,0,0,0,0,0
		c0,0,0,0,0,0c0,0,0,0,0,0c0,0,0,0,0,0c0,0,0,0,0,0c0,0,0,0,0,0c0,0,0,0,0,0c0,0,0,0,0,0c0,0,0,0,0,0c0,0,0,0,0,0c0,0,0,0,0,0
		c0,0,0,0,0,0c0,0,0,0,0,0c0,0,0,0,0,0c0,0,0,0,0,0c0,0,0,0,0,0c0,0,0,0,0,0c0,0,0,0,0,0c0,0,0,0,0,0c0,0,0,0,0,0c0,0,0,0,0,0
		c0,0,0,0,0,0c0,0,0,0,0,0c0,0,0,0,0,0c0,0,0,0,0,0c0,0,0,0,0,0c0,0,0,0,0,0c0,0,0,0,0,0c0,0,0,0,0,0c0,0,0,0,0,0c0,0,0,0,0,0
		c0,0,0,0,0,0c0,0,0,0,0,0c0,0,0,0,0,0c0,0,0,0,0,0c0,0,0,0,0,0c0,0,0,0,0,0c0,0,0,0,0,0c0,0,0,0,0,0c0,0,0,0,0,0c0,0,0,0,0,0
		c0,0,0,0,0,0c0,0,0,0,0,0c0,0,0,0,0,0c0,0,0,0,0,0c0,0,0,0,0,0c0,0,0,0,0,0.1c0,0,0,0,0,0c0,0,0,0,0,0c0,0,0,0,0,0c0,0,0,0,0,0
		c0,0,0,0,0,0c0,0,0,0,0,0c0,0,0,0,0,0c0,0,0,0,0,0c0,0,0,0,0,0c0,0,0,0,0,0c0,0,0,0,0,0c0,0,0,0,0,0c0,0,0,0,0,0c0,0,0,0,0,0
		c0,0,0,0,0,0c0,0,0,0,0,0c0,0,0,0,0,0c0,0,0,0,0,0c0,0,0,0,0,0c0,0,0,0,0,0c0,0,0,0,0,0c0,0,0,0,0,0c0,0,0,0,0,0c0,0,0,0,0,0
		c0,0,0,0,0,0c0,0,0,0,0,0c0,0,0,0,0,0c0,0,0,0,0,0c0,0,0,0,0,0c0,0,0,0,0,0l0,0l0,0l0,0c0,0,0,0,0,0l0,0l0,0l0,0c0,0,0,0,0,0l0,0
		c0,0,0,0,0,0l0,0c0,0,0,0,0,0l0,0c0,0,0,0,0,0v0c0,0,0,0,0,0l0,0c0,0,0,0,0,0l0,0c0,0,0,0,0,0l0,0c0,0,0,0,0,0v0c0,0,0,0,0,0v0
		c0,0,0,0,0,0l0,0c-0.4,0.6-1.6,2.4-1.6,2.4l2.6,1.7l1.7-2.6c0.9-1.4,1.7-2.8,2.5-4.2L511.8,162.6L511.8,162.6z M515.3,152.4
		c-0.1,0.7-0.2,1.4-0.4,2l0,0c0,0.1,0,0.1-0.1,0.2v0c0,0,0,0,0,0v0c0,0,0,0,0,0c0,0,0,0,0,0c0,0,0,0,0,0c0,0,0,0,0,0c0,0,0,0,0,0
		c0,0,0,0,0,0c0,0,0,0,0,0c0,0,0,0,0,0c0,0,0,0,0,0c0,0,0,0,0,0c0,0,0,0,0,0c0,0,0,0,0,0c0,0,0,0,0,0c0,0,0,0,0,0c0,0,0,0,0,0
		c0,0,0,0,0,0c0,0,0,0,0,0c0,0,0,0,0,0c0,0,0,0,0,0c0,0,0,0,0,0c0,0,0,0,0,0c0,0,0,0,0,0l0,0c0,0,0,0,0,0c0,0,0,0,0,0c0,0,0,0,0,0
		c0,0,0,0,0,0c0,0,0,0,0,0c0,0,0,0,0,0c0,0,0,0,0,0c0,0,0,0,0,0c0,0,0,0,0,0c0,0,0,0,0,0c0,0,0,0,0,0c0,0,0,0,0,0c0,0,0,0,0,0
		c0,0,0,0,0,0c0,0,0,0,0,0v0c-0.4,1.5-0.9,3-1.6,4.6l2.8,1.2c1.2-2.8,2-5.5,2.4-8.1L515.3,152.4L515.3,152.4z M517.1,140.6l-2.8,1.2
		l0,0c0,0,0,0,0,0c0,0,0,0,0,0c0,0,0,0,0,0c0,0,0,0,0,0c0,0,0,0,0,0c0,0,0,0,0,0c0,0,0,0,0,0c0,0,0,0,0,0c0,0,0,0,0,0c0,0,0,0,0,0
		c0,0,0,0,0,0c0,0,0,0,0,0c0,0,0,0,0,0c0,0,0,0,0,0c0,0,0,0,0,0c0,0,0,0,0,0c0,0,0,0,0,0c0,0,0,0,0,0c0,0,0,0,0,0c0,0,0,0,0,0
		c0,0,0,0,0,0c0,0,0,0,0,0c0,0,0,0,0,0c0,0,0,0,0,0c0,0,0,0,0,0c0,0,0,0,0,0c0,0,0,0,0,0c0,0,0,0,0,0c0,0,0,0,0,0c0,0,0,0,0,0
		c0,0,0,0,0,0c0,0,0,0,0,0c0,0,0,0,0,0c0,0,0,0,0,0c0,0,0,0,0,0c0,0,0,0,0,0c0,0,0,0,0,0c0,0,0,0,0,0c0,0,0,0,0,0c0,0,0,0,0,0
		c0,0,0,0,0,0c0,0,0,0,0,0c0,0,0,0,0,0c0,0,0,0,0,0c0,0,0,0,0,0l0,0c0,0,0,0,0,0c0,0,0,0,0,0c0,0,0,0,0,0c0,0,0,0,0,0c0,0,0,0,0,0
		c0,0,0,0,0,0c0,0,0,0,0,0c0,0,0,0,0,0c0,0,0,0,0,0c0,0,0,0,0,0c0,0,0,0,0,0c0,0,0,0,0,0c0,0,0,0,0,0c0,0,0,0,0,0c0,0,0,0,0,0
		c0,0,0,0,0,0c0,0,0,0,0,0c0,0,0,0,0,0c0,0,0,0,0,0c0,0,0,0,0,0c0,0,0,0,0,0c0,0,0,0,0,0c0,0,0,0,0,0c0,0,0,0,0,0c0,0,0,0,0,0
		c0,0,0,0,0,0c0,0,0,0,0,0c0,0,0,0,0,0c0,0,0,0,0,0c0,0,0,0,0,0c0,0,0,0,0,0c0,0,0,0,0,0.1c0,0,0,0,0,0c0,0,0,0,0,0c0,0,0,0,0,0
		c0,0,0,0,0,0.1v0c0,0,0,0,0,0c0,0,0,0,0,0c0,0,0,0,0,0.1c0,0,0,0,0,0c0,0,0,0,0,0c0,0,0,0,0,0c0,0,0,0,0,0.1c0,0,0,0,0,0
		c0,0,0,0,0,0c0,0,0,0,0,0c0,0,0,0,0,0.1c0,0,0,0,0,0c0,0,0,0,0,0l0,0c0,0,0,0,0,0.1c0,0,0,0,0,0c0,0,0,0,0,0v0c0,0,0,0,0,0
		c0,0,0,0,0,0c0,0,0,0,0,0l0,0c0,0,0,0,0,0c0,0,0,0,0,0c0,0,0,0.1,0,0.1c0,0,0,0,0,0c0,0,0,0.1,0,0.1c0,0,0,0,0,0c0,0,0,0,0,0l0,0
		c0,0,0,0,0,0.1v0c0,0,0,0,0,0l0,0c0,0.1,0,0.1,0,0.2v0c0.3,0.9,0.4,1.9,0.5,3l0,0c0,0,0,0.1,0,0.1c0,0,0,0,0,0c0,0,0,0,0,0l0,0
		c0,0,0,0,0,0.1c0,0,0,0,0,0c0,0,0,0,0,0v0c0,0,0,0,0,0.1v0c0,0,0,0,0,0c0,0,0,0,0,0c0,0,0,0,0,0.1c0,0,0,0,0,0c0,0,0,0,0,0
		c0,0,0,0,0,0c0,0,0,0,0,0.1c0,0,0,0,0,0c0,0,0,0,0,0c0,0,0,0,0,0c0,0,0,0,0,0c0,0,0,0,0,0c0,0,0,0,0,0c0,0,0,0,0,0c0,0,0,0,0,0
		c0,0,0,0,0,0c0,0,0,0,0,0c0,0,0,0,0,0c0,0,0,0,0,0c0,0,0,0,0,0c0,0,0,0,0,0c0,0,0,0,0,0c0,0,0,0,0,0c0,0,0,0,0,0v0c0,0,0,0,0,0
		c0,0,0,0,0,0c0,0,0,0,0,0c0,0,0,0,0,0c0,0,0,0,0,0.1c0,0,0,0,0,0c0,0,0,0,0,0c0,0,0,0,0,0c0,0,0,0,0,0.1v0c0,0,0,0,0,0c0,0,0,0,0,0
		c0,0,0,0,0,0.1v0c0,0,0,0,0,0c0,0,0,0,0,0c0,0.5,0,1,0,1.5l3.1,0.1C518.8,146.2,518.3,143.3,517.1,140.6L517.1,140.6z M508.8,131.2
		l-1.6,2.7c2.3,1.4,4.2,3.2,5.6,5.2l2.6-1.7C513.7,134.9,511.5,132.8,508.8,131.2L508.8,131.2z M497.5,127.3l-0.4,3.1
		c0.4,0.1,0.9,0.1,1.3,0.2h0c0,0,0,0,0,0c0,0,0,0,0,0c0,0,0,0,0,0c0,0,0,0,0,0c0,0,0,0,0,0c0,0,0,0,0,0c0,0,0,0,0,0c0,0,0,0,0,0
		c0,0,0,0,0,0c0,0,0,0,0,0c0,0,0,0,0,0c0,0,0,0,0,0c0,0,0,0,0,0c0,0,0,0,0,0c0,0,0,0,0,0c0,0,0,0,0,0c0,0,0,0,0,0c0,0,0,0,0,0
		c0,0,0,0,0,0c0,0,0,0,0,0c0,0,0,0,0,0c0,0,0,0,0,0c0,0,0,0,0,0c0,0,0,0,0,0c0,0,0,0,0,0c0,0,0,0,0,0c0,0,0,0,0,0c0,0,0,0,0,0
		c0,0,0,0,0,0c0,0,0,0,0,0c0,0,0,0,0,0c0,0,0,0,0,0h0c0,0,0,0,0,0c0,0,0,0,0,0c0,0,0,0,0,0c0,0,0,0,0,0c2,0.4,3.9,1,5.6,1.7l1.2-2.8
		C503.2,128.5,500.5,127.8,497.5,127.3L497.5,127.3z M490.8,126.9v3.1l0,0c0,0,0,0,0,0c0,0,0,0,0,0c0,0,0,0,0,0h0c0,0,0,0,0,0
		c0,0,0,0,0,0c0,0,0,0,0,0c0,0,0,0,0,0c0,0,0,0,0,0h0c0,0,0,0,0,0c0,0,0,0,0,0c0,0,0,0,0,0c0,0,0,0,0,0c0,0,0,0,0,0c0,0,0,0,0,0
		c0,0,0,0,0,0c0,0,0,0,0,0c0,0,0,0,0,0c0,0,0,0,0,0c0,0,0,0,0,0c0,0,0,0,0,0c0,0,0,0,0,0c0,0,0,0,0,0c0,0,0,0,0,0c0,0,0,0,0,0
		c0,0,0,0,0,0c0,0,0,0,0,0c0,0,0,0,0,0c0,0,0,0,0,0c0,0,0,0,0,0c0,0,0,0,0,0c0,0,0,0,0,0c0,0,0,0,0,0c0,0,0,0,0,0c0,0,0,0,0,0
		c0,0,0,0,0,0c0,0,0,0,0,0c0,0,0,0,0,0c0,0,0,0,0,0c0,0,0,0,0,0s0,0,0,0c0,0,0,0,0,0c0,0,0,0,0,0c0,0,0,0,0,0c0,0,0,0,0,0
		c0,0,0,0,0,0c0,0,0,0,0,0c0,0,0,0,0,0c0,0,0,0,0,0c0,0,0,0,0,0c0,0,0,0,0.1,0c0,0,0,0,0,0c0,0,0,0,0,0c0,0,0,0,0,0c0,0,0,0,0.1,0h0
		c0,0,0,0,0,0c0,0,0,0,0,0c0,0,0.1,0,0.1,0l0,0c0.5,0,1,0,1.6,0.1l0.2-3.1C493.1,126.9,492,126.9,490.8,126.9L490.8,126.9z"/>
	<path class="st1" d="M484.4,133.9H106.9c-22.5,0-30.6,15.8-18.1,35.2l114.7,176.6l33.6-53.4l25.8-4.9l23.3-54.3l14.7,6.1l8.6,17.2
		l10.8,3.6l16.2,29.8l20.9,13.5l18.4,22.1l16.6,12.9l109.9-169.2C515,149.8,506.9,133.9,484.4,133.9z"/>
	<path class="st0" d="M352.6,346.3l-27,24.5l5.2-24.7l-8.2-7.2l-2.1-13.4l-16,17.5l2.7-29.8l11.1-24.6l-0.8-1.3l-19.6,17l3.1-21.6
		l7.5-10l-3.9-8.5l-13.9,16l2.1-15.5l6.7-9.8l-2-8.3l-8.6-2.5l-22.1,51.8l-27,4.9L207,351l41.4,63.8l4.5-26.4l11.9-9.8l4.5,68.5
		l3.2,4.9l6.2-29.6l5.2-9.8l14.5,54.1c7.4-0.9,14.6-5.7,20.2-14.3l51.7-79.6L352.6,346.3z M262.2,338.3l1,26.3l-12.4,10.8l2.1-16.5
		l2.1-31.4l10.8-18L262.2,338.3z"/>
	<g>
		<g>
			<path class="st2" d="M166,190.2c-2.9,5.6-7.4,11.3-12.8,12.4c-13.4,2.7-14.5-16.4-14.8-24.3c-0.4-9,3-27.1,12.9-28.5
				c3.7-0.5,6.1,4,6.5,4.8c0.4-1.6,0.6-2.4,1-4c2.7,0,4,0,6.7,0c0,7.9-0.1,11.8-0.1,19.7c-3,0.2-4.6,0.4-7.6,0.6
				c-0.1-4.6-1.4-8.9-4.5-8.8c-3.1,0.2-5.1,6.9-5.1,14.9c0,7.3,2.1,13.6,6.1,12.9c3.5-0.6,6.4-7.2,6.7-8
				C163.1,185.4,164.1,187,166,190.2z"/>
			<path class="st2" d="M183.8,195.6c0-3.4,0-5.1,0.1-8.5c1.6-0.2,2.4-0.3,4-0.5c-0.3-1.7-0.5-2.5-0.9-4.2c-3.5,0.4-5.2,0.6-8.7,1.1
				c-0.4,1.8-0.6,2.8-0.9,4.6c1.3-0.2,2-0.3,3.3-0.5c0,3.4,0,5.1-0.1,8.6c-5.4,0.9-8.1,1.4-13.4,2.4c0-3.6,0-5.4,0.1-9
				c1.2-0.2,1.7-0.3,2.9-0.4c1.9-10,3.9-20,5.9-30c-0.7,0-1,0-1.7,0.1c0-3.5,0-5.2,0.1-8.6c6.5,0,9.8,0,16.3-0.1
				c2.3,11.6,4.7,23.3,7.2,34.9c1.2-0.1,1.8-0.2,3-0.4c0,3.2,0,4.8-0.1,8C194,194,190.6,194.5,183.8,195.6z M185.6,174.9
				c-1.1-5.4-1.6-8.2-2.7-13.7c-1.2,5.7-1.7,8.5-2.9,14.3C182.2,175.2,183.4,175.1,185.6,174.9z"/>
			<path class="st2" d="M232.4,160.1c-0.4,2.5-1,6.2-1.3,7.5c-1.9,8.8-2.8,13.2-4.7,22.2c-3.6,0.4-5.3,0.6-8.9,1
				c-1.8-9-2.7-13.6-4.5-22.8c-0.2-1-0.7-4.3-0.8-7.2c-0.1,0-0.1,0-0.2,0c-0.1,9.3-0.1,13.9-0.2,23.2c1-0.1,1.5-0.2,2.4-0.2
				c0,3,0,4.5-0.1,7.5c-4.6,0.6-6.9,0.9-11.5,1.5c0-3.1,0-4.7,0.1-7.8c0.9-0.1,1.4-0.2,2.3-0.3c0.1-10.6,0.2-15.9,0.3-26.5
				c-0.9,0-1.4,0-2.3,0.1c0-3.1,0-4.7,0.1-7.8c6.4,0,9.7,0,16.1-0.1c1.6,8.6,2.4,12.9,4.1,21.3c1.7-8.6,2.6-12.9,4.3-21.3
				c6.5,0,9.7,0,16.2,0c0,2.8,0,4.2-0.1,7c-0.9,0-1.4,0-2.3,0c-0.1,9.6-0.1,14.4-0.2,24c0.9-0.1,1.4-0.1,2.3-0.2
				c0,2.8,0,4.2-0.1,7.1c-5.4,0.4-8.1,0.7-13.5,1.2c0-2.9,0-4.4,0.1-7.3c1-0.1,1.4-0.1,2.4-0.2c0.1-7.4,0.1-11.2,0.2-18.6
				c0-1.3,0-2,0-3.3C232.5,160.1,232.5,160.1,232.4,160.1z"/>
			<path class="st2" d="M259.6,150.3c9.9,0,11.7,5.2,11.7,11.1c0,6.9-5.2,10.4-11.3,10.6c-1.3,0-1.9,0.1-3.2,0.1
				c0,3.3,0,4.9-0.1,8.2c1-0.1,1.6-0.1,2.6-0.1c0,2.8,0,4.2,0,7c-5.5,0.3-8.3,0.5-13.8,0.9c0-2.9,0-4.3,0.1-7.1
				c1-0.1,1.4-0.1,2.4-0.1c0.1-9.4,0.1-14.1,0.2-23.5c-1,0-1.4,0-2.4,0c0-2.8,0-4.3,0.1-7.1C251.3,150.3,254.1,150.3,259.6,150.3z
				 M256.8,166.4c0.8,0,1.2,0,1.9-0.1c2.5-0.1,4.2-1.7,4.2-4.5c0-3.1-1.5-4.8-3.9-4.7c-0.9,0-1.3,0-2.1,0
				C256.9,160.9,256.8,162.7,256.8,166.4z"/>
			<path class="st2" d="M292.8,182.8c-0.9,1.9-3.6,3.7-6.9,3.8c-7.5,0.2-13.4-6.6-13.3-17.8c0.1-11.3,6.5-19.1,13.2-19.1
				c6.2,0,7.6,3.5,8.3,4.3c0.4-1.5,0.5-2.2,0.9-3.7c2.5,0,3.8,0,6.3,0c0,6,0,9,0,15.1c-3.1,0-4.6,0-7.6,0c-0.1-4.1-2.3-6.5-4.8-6.5
				c-3.4,0-5.8,4.6-5.9,9.7c0,5.2,2.1,9.4,5.8,9.4c2.4,0,3.5-1.2,4.1-2.6c0-0.9,0-1.3,0-2.1c-1,0-1.6,0-2.6,0c0-2.2,0-3.3,0-5.5
				c5.7,0,8.5-0.1,14.2,0c0,2.2,0,3.3,0,5.5c-0.7,0-1,0-1.7,0c0,5.1,0,7.7,0,12.8c-3.4,0-5.1,0-8.6,0
				C293.6,184.7,293.3,184,292.8,182.8z"/>
			<path class="st2" d="M319.9,150.3c9.9,0,11.8,4.8,11.8,10.7c0,4.1-2.6,6.9-6.1,7.4c2.9,0.6,5.6,3.7,5.6,7.5c0,2.2,0.3,3.5,1,3.6
				c0.6,0,1-0.6,1-1.6c0-0.7,0-1,0-1.7c1.1,0,1.7,0.1,2.9,0.1c0,1.1,0,1.7,0,2.9c0,4.3-1.4,8.3-6.2,8.1c-5.6-0.2-8.3-3.8-8.3-9.9
				c0-4.7-0.5-5.8-4.3-5.9c0,3.2,0,4.8,0,8c1,0,1.6,0,2.6,0.1c0,2.7,0,4.1,0,6.8c-5.5-0.1-8.3-0.2-13.8-0.2c0-2.7,0-4,0-6.7
				c1,0,1.4,0,2.4,0c0-8.9,0-13.4,0-22.3c-1,0-1.4,0-2.4,0c0-2.7,0-4,0-6.7C311.6,150.3,314.3,150.3,319.9,150.3z M317.2,165.6
				c0.8,0,1.2,0,1.9,0c2.5,0,4.1-1.4,4.1-4.1c0-3-1.4-4.6-3.9-4.6c-0.9,0-1.3,0-2.1,0C317.2,160.4,317.2,162.2,317.2,165.6z"/>
			<path class="st2" d="M337.1,168.4c0.2-11,6.1-19,14.8-19.1c11.1-0.1,15.6,11.2,15.5,20.6c-0.2,12.2-5.2,19.5-14.8,18.9
				C342,188,336.9,177.8,337.1,168.4z M356.7,169.4c-0.1-6.5-1.5-11.8-4.8-11.9c-2.6-0.1-4.3,4.6-4.3,11.2c0.1,7,2.1,11.5,4.8,11.6
				C355.1,180.5,356.7,176.1,356.7,169.4z"/>
			<path class="st2" d="M382,150.4c0,3,0,4.4,0.1,7.4c-0.9,0-1.4,0-2.3-0.1c0,4.9,0.1,7.4,0.1,12.3c0.1,9.2,1.6,11.3,4.4,11.5
				c2.6,0.2,4.3-1,4.2-11.1c-0.1-5-0.1-7.4-0.1-12.4c-0.9,0-1.4,0-2.3-0.1c0-3.1,0-4.6-0.1-7.7c5,0,7.6,0,12.6,0
				c0,3.1,0,4.7,0.1,7.8c-0.9,0-1.4,0-2.3-0.1c0.1,5.8,0.1,8.7,0.1,14.6c0.1,14.2-4.2,20.1-12,19.1c-8.5-1.2-13.3-7.7-13.4-20.4
				c-0.1-5.5-0.1-8.3-0.1-13.8c-1,0-1.4,0-2.4,0c0-2.9,0-4.3-0.1-7.2C373.8,150.3,376.5,150.4,382,150.4z"/>
			<path class="st2" d="M430,159.3c0.1,12.8,0.2,25.6,0.3,38.4c-3.6-0.7-5.5-1-9.1-1.6c-4.4-10.7-6.6-15.8-11-25.7
				c0.1,6.3,0.1,9.5,0.1,15.8c1.3,0.2,2,0.2,3.3,0.4c0,3.3,0,4.9,0.1,8.2c-5.2-0.8-7.8-1.2-13-2c0-3.1,0-4.7-0.1-7.8
				c1,0.1,1.5,0.2,2.5,0.3c-0.1-10.8-0.2-16.2-0.3-27c-1,0-1.5,0-2.5-0.1c0-3.1,0-4.7-0.1-7.8c4.9,0,7.3,0,12.2,0
				c4.3,9.3,6.4,14.1,10.6,24.1c0-6.3-0.1-9.4-0.1-15.6c-1.2,0-1.7-0.1-2.9-0.1c0-3.4,0-5-0.1-8.4c5.1,0,7.7,0,12.8,0.1
				c0,3.5,0,5.3,0.1,8.8C431.7,159.3,431.1,159.3,430,159.3z"/>
			<path class="st2" d="M435.1,189.5c1,0.2,1.6,0.2,2.6,0.4c-0.1-10-0.1-20.1-0.2-30.1c-1.1,0-1.6-0.1-2.6-0.1c0-3.6,0-5.4-0.1-9.1
				c5.2,0,7.8,0,13,0.1c12.8,0.6,16,16.5,16.2,26.4c0.2,9.3-2.8,26.9-16.1,24.1c-5.1-1.1-7.6-1.6-12.7-2.5
				C435.2,195,435.2,193.1,435.1,189.5z M448,191.6c4.5,0.6,6.3-6.4,6.3-15.7c0-7.9-1.9-15.5-6.4-15.7c-0.6,0-1,0-1.6-0.1
				c0,10.4,0.1,20.8,0.1,31.2C447.1,191.4,447.4,191.5,448,191.6z"/>
		</g>
	</g>
	<g>
		<g>
			<path class="st2" d="M223.9,202.9c0,3.4,0,5.1,0,8.5c3.8-0.1,5.7-0.2,9.5-0.3c1,0,1.7,0.3,1.7,0.9c0,0.7,0,1.1,0,1.8
				c0,0.5-0.8,0.9-1.7,1c-3.8,0.1-5.7,0.1-9.5,0.3c0,4.5,0,6.7,0,11.2c0,0.5-0.8,0.9-1.7,0.9c-1.4,0-2.1,0-3.5,0
				c-1,0-1.8-0.4-1.8-0.9c0-9.8,0-14.8,0-24.6c0-1,1.5-1.9,3.5-2c5.2-0.4,7.7-0.5,12.9-0.8c1-0.1,1.7,0.3,1.7,0.8c0,0.7,0,1.1,0,1.8
				c0,0.5-0.8,1-1.7,1C229.6,202.5,227.7,202.6,223.9,202.9z"/>
			<path class="st2" d="M251.3,226.1c0,0.5-0.8,0.9-1.7,0.9c-1.4,0-2.1,0-3.5,0c-1,0-1.8-0.4-1.8-0.9c-0.1-10.8-0.1-16.2-0.1-27
				c0-0.5,0.8-1,1.7-1c1.4-0.1,2.1-0.1,3.5-0.2c0.9,0,1.8,0.3,1.8,0.9C251.2,209.7,251.3,215.1,251.3,226.1z"/>
			<path class="st2" d="M285.6,203.9c0,8.9,0,13.3,0.1,22.2c0,0.5-0.8,1-1.7,1c-1.4,0-2.1,0-3.5,0c-1,0-1.8-0.5-1.8-1
				c0-8.8,0-13.2-0.1-22.1c0-1.7-2.5-3.1-5.6-3c-3.2,0.1-5.7,1.5-5.7,3.2c0,8.8,0.1,13.1,0.1,21.9c0,0.5-0.8,1-1.7,1
				c-1.4,0-2.1,0-3.5,0c-1,0-1.8-0.5-1.8-1c0-8.7-0.1-13-0.1-21.7c0-3.8,5.7-7.1,12.7-7.2C279.9,196.9,285.6,200,285.6,203.9z"/>
			<path class="st2" d="M320.1,204c0,6.4,0,9.6-0.1,15.9c0,3.9-5.6,7-12.6,7c-3.7,0-5.5,0-9.2,0c-1.9,0-3.5-0.9-3.5-2
				c0-10.5,0-15.8,0-26.3c0-1.1,1.6-2,3.5-2c3.7,0,5.5,0,9.2,0C314.5,196.9,320.1,200.1,320.1,204z M313,203.9
				c0-1.8-2.5-3.2-5.6-3.2c-2.3,0-3.4,0-5.7,0c0,8.9,0,13.4,0,22.3c2.3,0,3.4,0,5.7,0c3.1,0,5.6-1.4,5.6-3.1
				C313,213.5,313,210.3,313,203.9z"/>
			<path class="st2" d="M336.2,201.2c0,3.6,0,5.4,0,9c3.8,0.1,5.7,0.1,9.5,0.2c1,0,1.7,0.5,1.7,1c0,0.8,0,1.1,0,1.9
				c0,0.5-0.8,0.9-1.8,0.9c-3.8-0.1-5.7-0.1-9.5-0.2c0,3.6,0,5.5,0,9.1c3.8,0,5.7,0,9.5,0c1,0,1.7,0.4,1.7,1c0,0.8,0,1.1,0,1.9
				c0,0.5-0.8,0.9-1.8,0.9c-5.2,0-7.8,0-13,0c-2,0-3.5-0.9-3.5-1.9c0-10.4,0.1-15.6,0.1-26c0-1.1,1.5-1.9,3.5-1.8
				c5.2,0.2,7.8,0.2,13,0.5c1,0,1.7,0.5,1.7,1c0,0.8,0,1.1,0,1.9c0,0.5-0.8,0.9-1.8,0.9C341.9,201.4,340,201.3,336.2,201.2z"/>
			<path class="st2" d="M381,208.7c0,1.8-1.4,3.4-3.8,4.5c2.4,1.3,3.8,2.9,3.8,4.7c0,3.3,0,4.9,0,8.2c0,0.4-0.8,0.9-1.7,0.9
				c-1.4,0-2.1,0-3.5,0c-1,0-1.7-0.4-1.7-0.9c0-3.3,0-5,0-8.3c0-1.6-2.5-2.9-5.6-3c-2.2-0.1-3.3-0.1-5.6-0.1c0,4.6,0,6.9-0.1,11.5
				c0,0.5-0.9,0.9-1.8,0.9c-1.4,0-2.1,0-3.5,0c-1,0-1.7-0.5-1.7-0.9c0.1-10.4,0.1-15.6,0.1-26c0-1,1.5-1.8,3.5-1.7
				c3.6,0.2,5.4,0.3,9,0.5c7,0.4,12.5,3.7,12.5,7.2C381,207.2,381,207.7,381,208.7z M374.1,205.7c0-1.6-2.5-3-5.5-3.2
				c-2.2-0.1-3.3-0.2-5.6-0.3c0,3.5,0,5.2,0,8.7c2.2,0.1,3.3,0.1,5.6,0.2c3,0.1,5.6-1.1,5.6-2.7C374,207.3,374,206.8,374.1,205.7z"
				/>
		</g>
	</g>
	<g>
		<text transform="matrix(0.7073 0 0 1 202.4385 285.1758)" class="st2 st3 st4">20</text>
		<text transform="matrix(0.7073 0 0 1 358.0703 285.1758)" class="st2 st3 st4">17</text>
	</g>
	<path class="st0" d="M502.4,121.4c24.6,0,33.5,17.6,19.8,39.1L320.7,475.1c-6.9,10.7-16,16.1-25,16.1c-9.1,0-18.1-5.4-25-16.1
		L69.1,160.4c-13.8-21.5-4.9-39.1,19.8-39.1H502.4 M502.4,109H88.9c-16.1,0-28.8,6.3-34.9,17.4c-6.3,11.4-4.5,26.3,4.7,40.7
		l201.5,314.7c8.9,13.9,21.8,21.8,35.4,21.8c13.6,0,26.6-7.9,35.4-21.8l201.5-314.7c9.2-14.4,10.9-29.3,4.7-40.7
		C531.2,115.3,518.5,109,502.4,109L502.4,109z"/>
</g>
</svg>
